<?xml version="1.0" standalone="no"?>
<!DOCTYPE svg PUBLIC "-//W3C//DTD SVG 20010904//EN"
 "http://www.w3.org/TR/2001/REC-SVG-20010904/DTD/svg10.dtd">
<svg version="1.0" xmlns="http://www.w3.org/2000/svg"
 width="260.000000pt" height="260.000000pt" viewBox="0 0 260.000000 260.000000"
 preserveAspectRatio="xMidYMid meet">
<metadata>
Created by potrace 1.14, written by Peter Selinger 2001-2017
</metadata>
<g transform="translate(0.000000,260.000000) scale(0.100000,-0.100000)"
fill="#000000" stroke="none">
<path d="M1235 2511 c-11 -5 -28 -18 -38 -28 -9 -11 -90 -166 -178 -343 -88
-178 -168 -329 -177 -337 -19 -14 -68 -29 -122 -37 -19 -2 -57 -8 -85 -12 -27
-3 -59 -8 -70 -10 -11 -2 -40 -7 -65 -10 -25 -3 -101 -14 -170 -24 -69 -10
-147 -22 -175 -25 -72 -9 -87 -14 -117 -43 -31 -28 -43 -68 -33 -111 6 -29 30
-53 398 -412 182 -178 172 -155 138 -354 -11 -60 -22 -126 -25 -145 -4 -19 -9
-48 -12 -63 -3 -16 -7 -38 -9 -50 -3 -27 -23 -143 -30 -177 -30 -151 -23 -193
38 -230 59 -36 54 -38 402 145 270 142 357 185 375 185 18 0 175 -78 387 -191
258 -139 307 -161 346 -156 69 9 112 69 102 140 -4 23 -8 44 -10 47 -2 3 -6
30 -10 60 -3 30 -8 62 -11 71 -3 10 -6 30 -8 45 -2 16 -9 56 -15 89 -6 33 -13
76 -16 95 -3 19 -8 42 -10 50 -3 8 -7 35 -10 60 -3 25 -8 56 -11 70 -3 14 -8
53 -11 88 l-5 62 129 128 c71 70 194 189 272 265 78 76 146 149 151 163 18 46
11 82 -20 118 -29 32 -49 40 -130 52 -147 20 -250 35 -271 39 -31 5 -172 25
-201 29 -24 3 -106 15 -148 22 -55 8 -73 37 -242 376 -153 306 -171 337 -202
352 -37 17 -69 19 -101 7z"/>
</g>
</svg>
